#!OML:ASF Y:\EmotionMaleHayes\Project 1\Capture day 1\Session 1\Male1.ASF
:FULLY-SPECIFIED
:DEGREES
225
root 19.8581 15.8593 -0.31702 485.238 68.4735 482.275
lowerback 8.9338 -3.47152 -21.3179
upperback 2.56486 -6.17049 -3.78316
thorax -0.353697 -3.00704 8.16985
lowerneck -26.8231 2.45623 3.80085
upperneck 22.3073 2.2672 -1.14989
head 11.8016 1.21042 -0.651529
rclavicle 4.34344e-014 7.20594e-014
rhumerus -78.0228 33.4162 -78.9072
rradius 64.921
rwrist -15.9402
rhand -19.9888 -23.4255
rfingers 7.12502
rthumb 6.35064 -53.3103
lclavicle 4.34344e-014 7.20594e-014
lhumerus 12.0254 -34.018 62.745
lradius 79.892
lwrist 19.8443
lhand -33.3313 -33.0183
lfingers 7.12502
lthumb -6.534 -3.13907
rfemur -36.9424 -6.45542 -10.8335
rtibia 14.0347
rfoot -13.7162 -7.57733
rtoes 11.3328
lfemur 26.2305 -1.27807 -36.2159
ltibia 4.35961
lfoot -22.8777 -7.4675
ltoes -4.72834
226
root 20.1959 15.7556 -0.363302 483.963 65.9029 481.003
lowerback 9.20966 -3.79126 -23.2358
upperback 2.54088 -6.76691 -4.32454
thorax -0.177331 -3.27991 8.59392
lowerneck -26.8264 2.60566 4.09479
upperneck 22.3105 2.40415 -1.31758
head 11.8141 1.27427 -0.738247
rclavicle 3.55452e-014 -3.08116e-014
rhumerus -78.6304 34.2048 -78.0471
rradius 65.4523
rwrist -15.6714
rhand -19.479 -23.3526
rfingers 7.12502
rthumb 6.8428 -53.222
lclavicle 3.55452e-014 -3.08116e-014
lhumerus 12.8428 -33.8736 60.9372
lradius 81.6476
lwrist 19.9588
lhand -33.7773 -33.6427
lfingers 7.12502
lthumb -6.9646 -3.77724
rfemur -37.1037 -9.87623 -13.2958
rtibia 15.8098
rfoot -13.524 -5.36939
rtoes 11.9401
lfemur 27.2528 -1.37514 -38.9865
ltibia 5.4537
lfoot -23.1052 -8.13118
ltoes -7.07226
227
root 20.5082 15.6463 -0.327312 484.961 66.9051 481.677
lowerback 9.02843 -3.75226 -22.6562
upperback 2.41751 -6.6774 -3.82779
thorax -0.258416 -3.24778 8.83442
lowerneck -27.0539 2.70761 4.48019
upperneck 22.3114 2.46612 -1.63841
head 11.8689 1.28932 -0.90955
rclavicle 9.87711e-016 3.19795e-014
rhumerus -78.8389 34.8276 -77.0962
rradius 65.7679
rwrist -15.5156
rhand -18.9516 -23.4939
rfingers 7.12502
rthumb 7.3519 -53.3461
lclavicle 9.87711e-016 3.19795e-014
lhumerus 13.4374 -33.6098 59.2893
lradius 83.5156
lwrist 20.3202
lhand -34.1186 -33.7442
lfingers 7.12502
lthumb -7.29408 -3.88995
rfemur -38.6463 -7.91156 -12.8045
rtibia 17.3755
rfoot -13.7395 -7.7505
rtoes 13.5364
lfemur 27.7494 -2.29801 -37.8774
ltibia 6.13637
lfoot -23.4454 -6.80593
ltoes -9.75797
228
root 20.8874 15.5541 -0.340829 485.525 66.1073 482.427
lowerback 8.89631 -3.96316 -23.0403
upperback 2.4845 -6.92892 -3.79969
thorax 0.0261161 -3.40425 9.04312
lowerneck -26.9809 2.72931 4.82591
upperneck 22.2859 2.47969 -2.06352
head 11.8575 1.26727 -1.1245
rclavicle 7.52773e-014 9.25343e-014
rhumerus -79.2063 35.4542 -76.2649
rradius 65.9904
rwrist -15.5516
rhand -18.3909 -23.9889
rfingers 7.12502
rthumb 7.89304 -53.8215
lclavicle 7.52773e-014 9.25343e-014
lhumerus 13.5855 -33.6547 58.097
lradius 85.3939
lwrist 21.5052
lhand -34.189 -33.55
lfingers 7.12502
lthumb -7.362 -3.69812
rfemur -38.495 -9.33753 -13.1866
rtibia 19.2387
rfoot -12.9214 -7.90972
rtoes 13.9658
lfemur 29.019 -2.91794 -38.5313
ltibia 7.03925
lfoot -23.4035 -6.33289
ltoes -11.9969
229
root 21.2599 15.4646 -0.34471 486.592 66.5212 483.784
lowerback 8.77094 -4.03591 -22.3689
upperback 2.52547 -6.9549 -3.47897
thorax 0.103153 -3.44523 9.03551
lowerneck -26.9143 2.76321 5.12231
upperneck 22.3621 2.51329 -2.41567
head 11.8858 1.26142 -1.30058
rclavicle -2.94947e-014 -3.96575e-014
rhumerus -79.3233 35.9707 -75.3626
rradius 66.0362
rwrist -15.5539
rhand -18.2494 -24.0274
rfingers 7.12502
rthumb 8.02963 -53.8548
lclavicle -2.94947e-014 -3.96575e-014
lhumerus 13.5945 -33.739 57.1421
lradius 87.1213
lwrist 22.5629
lhand -34.2603 -33.3588
lfingers 7.12502
lthumb -7.43084 -3.50929
rfemur -38.4961 -9.68763 -12.1535
rtibia 21.1835
rfoot -11.9527 -8.41873
rtoes 12.3688
lfemur 30.3264 -3.43333 -37.8564
ltibia 7.88201
lfoot -23.3939 -5.84452
ltoes -15.0677
230
root 21.636 15.3823 -0.339733 487.282 67.2996 484.727
lowerback 8.47511 -4.02694 -21.5987
upperback 2.57912 -6.82482 -3.12187
thorax 0.23243 -3.41668 8.99505
lowerneck -26.9136 2.75545 5.23199
upperneck 22.4917 2.49347 -2.52625
head 11.9383 1.24882 -1.36448
rclavicle -1.02126e-014 9.80008e-014
rhumerus -79.062 36.2527 -74.308
rradius 65.922
rwrist -15.4967
rhand -18.7229 -23.4718
rfingers 7.12502
rthumb 7.57266 -53.3163
lclavicle -1.02126e-014 9.80008e-014
lhumerus 13.2607 -33.8715 56.4044
lradius 88.9373
lwrist 23.7151
lhand -34.146 -32.9604
lfingers 7.12502
lthumb -7.32048 -3.10701
rfemur -38.683 -9.82349 -10.6581
rtibia 23.1473
rfoot -10.5465 -9.12226
rtoes 12.2313
lfemur 31.2541 -3.91063 -37.0587
ltibia 9.27698
lfoot -23.3342 -5.28184
ltoes -17.1905
231
root 22.0185 15.3117 -0.329384 487.328 67.8654 484.974
lowerback 8.10002 -3.95145 -21.1621
upperback 2.56865 -6.61852 -2.88604
thorax 0.339695 -3.33772 8.98935
lowerneck -26.6225 2.71691 5.23849
upperneck 22.5051 2.44792 -2.49072
head 11.8872 1.23758 -1.36149
rclavicle -1.58531e-014 -3.8763e-014
rhumerus -78.6862 36.1472 -73.1774
rradius 65.8132
rwrist -15.5282
rhand -18.9518 -23.3809
rfingers 7.12502
rthumb 7.3517 -53.2332
lclavicle -1.58531e-014 -3.8763e-014
lhumerus 12.4015 -34.3013 56.0839
lradius 90.7664
lwrist 24.5575
lhand -34.0089 -32.7868
lfingers 7.12502
lthumb -7.18814 -2.92888
rfemur -38.9599 -10.4135 -9.39666
rtibia 25.1807
rfoot -7.24276 -9.9855
rtoes 17.7369
lfemur 32.0169 -4.26774 -36.6105
ltibia 10.8002
lfoot -22.4539 -4.81527
ltoes -16.7812
